<svg width="10" height="10" viewBox="0 0 10 10" fill="none" xmlns="http://www.w3.org/2000/svg">
<path d="M9.28571 4.03906C9.28571 3.87165 9.10714 3.80469 8.97321 3.78237L6.17188 3.375L4.91629 0.835937C4.86607 0.72991 4.77121 0.607143 4.64286 0.607143C4.51451 0.607143 4.41964 0.72991 4.36942 0.835937L3.11384 3.375L0.3125 3.78237C0.172991 3.80469 0 3.87165 0 4.03906C0 4.13951 0.0725446 4.23437 0.139509 4.30692L2.17076 6.28237L1.69085 9.07254C1.68527 9.11161 1.67969 9.14509 1.67969 9.18415C1.67969 9.32924 1.75223 9.46317 1.91406 9.46317C1.99219 9.46317 2.06473 9.43527 2.13728 9.39621L4.64286 8.07924L7.14844 9.39621C7.2154 9.43527 7.29353 9.46317 7.37165 9.46317C7.53348 9.46317 7.60045 9.32924 7.60045 9.18415C7.60045 9.14509 7.60045 9.11161 7.59487 9.07254L7.11496 6.28237L9.14063 4.30692C9.21317 4.23437 9.28571 4.13951 9.28571 4.03906Z" fill="#60B40C"/>
</svg>
