<svg width="10" height="10" viewBox="0 0 10 10" fill="none" xmlns="http://www.w3.org/2000/svg">
<path d="M9.28571 4.03906C9.28571 4.12091 9.23735 4.21019 9.14063 4.30692L7.11496 6.28237L7.59487 9.07254C7.59859 9.09859 7.60045 9.13579 7.60045 9.18415C7.60045 9.26228 7.57999 9.32738 7.53906 9.37946C7.50186 9.43527 7.44606 9.46317 7.37165 9.46317C7.30097 9.46317 7.22656 9.44085 7.14844 9.39621L4.64286 8.07924L2.13728 9.39621C2.05543 9.44085 1.98103 9.46317 1.91406 9.46317C1.83594 9.46317 1.77641 9.43527 1.73549 9.37946C1.69829 9.32738 1.67969 9.26228 1.67969 9.18415C1.67969 9.16183 1.68341 9.12463 1.69085 9.07254L2.17076 6.28237L0.139509 4.30692C0.046503 4.20647 0 4.11719 0 4.03906C0 3.90141 0.104167 3.81585 0.3125 3.78237L3.11384 3.375L4.36942 0.835937C4.4401 0.683407 4.53125 0.607143 4.64286 0.607143C4.75446 0.607143 4.84561 0.683407 4.91629 0.835937L6.17188 3.375L8.97321 3.78237C9.18155 3.81585 9.28571 3.90141 9.28571 4.03906Z" fill="#D04E5D"/>
</svg>
